<svg width="69" height="42" viewBox="0 0 69 42" fill="none" xmlns="http://www.w3.org/2000/svg">
<path d="M1.30991 15.4362L1.40637 5.56669L5.17222 5.5336C6.32017 5.52352 7.28889 5.71098 8.07836 6.09599C8.86783 6.481 9.45962 7.0404 9.85374 7.77417C10.2573 8.49853 10.454 9.37868 10.4439 10.4146C10.4338 11.4412 10.2199 12.325 9.80202 13.0659C9.39349 13.8067 8.79062 14.3813 7.99339 14.7896C7.19626 15.1885 6.22372 15.393 5.07576 15.4031L1.30991 15.4362ZM3.51133 13.6251L4.96728 13.6123C6.06857 13.6026 6.88771 13.3388 7.42471 12.8208C7.97113 12.2934 8.24954 11.4978 8.25994 10.4338C8.27043 9.36053 8.00752 8.56962 7.47123 8.06106C6.94427 7.55243 6.13014 7.30295 5.02885 7.31262L3.5729 7.32542L3.51133 13.6251ZM16.7986 15.4541C15.5666 15.4649 14.6086 15.1421 13.9244 14.4855C13.2402 13.8289 12.9037 12.9313 12.9149 11.7927C12.9221 11.0554 13.073 10.4102 13.3677 9.85701C13.6718 9.30375 14.0866 8.87083 14.6123 8.55825C15.1473 8.23626 15.7695 8.07215 16.4788 8.06592C17.1788 8.05977 17.7607 8.20397 18.2244 8.49852C18.6975 8.79299 19.048 9.20986 19.276 9.74911C19.5135 10.279 19.6288 10.8985 19.6218 11.6078L19.617 12.0978L14.6472 12.1415L14.6575 11.0915L18.0874 11.0614L17.8475 11.2595C17.8532 10.6715 17.7362 10.2292 17.4965 9.93273C17.2662 9.62679 16.927 9.47579 16.479 9.47973C15.9844 9.48407 15.5999 9.66943 15.3257 10.0358C15.0608 10.4021 14.9251 10.9259 14.9184 11.6072L14.9162 11.8311C14.9095 12.5218 15.0725 13.0336 15.4052 13.3666C15.7472 13.6996 16.2402 13.8632 16.8842 13.8576C17.2668 13.8542 17.6266 13.8044 17.9635 13.7081C18.3098 13.6024 18.638 13.4409 18.9481 13.2235L19.5224 14.6183C19.1652 14.8827 18.7526 15.087 18.2846 15.2311C17.8259 15.3751 17.3306 15.4494 16.7986 15.4541ZM24.122 15.2358L21.1255 8.16507L23.3514 8.14552L25.331 13.2794L24.869 13.2835L27.0193 8.1133L29.1052 8.09497L25.942 15.2198L24.122 15.2358ZM30.1965 15.1824L30.2184 12.9425L32.4863 12.9226L32.4644 15.1625L30.1965 15.1824ZM34.5265 15.1444L39.1587 5.23502L40.9647 5.21915L45.46 15.0483L43.2481 15.0678L42.085 12.3344L42.9331 12.9288L37.0673 12.9804L37.9411 12.3708L36.7244 15.1251L34.5265 15.1444ZM40.0323 7.52303L38.1845 11.8227L37.8117 11.294L42.2215 11.2553L41.8943 11.7901L40.0883 7.52254L40.0323 7.52303ZM47.431 15.031L47.4823 9.78127C47.4852 9.48262 47.4789 9.17938 47.4632 8.87156C47.4476 8.55441 47.4227 8.242 47.3884 7.93434L49.4183 7.91651L49.5594 9.2311L49.3914 9.23257C49.6011 8.78279 49.9079 8.42547 50.3118 8.16063C50.7157 7.89578 51.1929 7.76094 51.7436 7.7561C52.2849 7.75135 52.7363 7.87803 53.0977 8.13615C53.4686 8.38486 53.7307 8.77917 53.884 9.31908L53.66 9.32105C53.8701 8.83394 54.2005 8.44842 54.6512 8.1645C55.102 7.87124 55.6121 7.72211 56.1814 7.71711C56.984 7.71006 57.579 7.9428 57.9664 8.41534C58.3537 8.88787 58.5424 9.63278 58.5324 10.6501L58.4906 14.9339L56.3767 14.9524L56.4178 10.7386C56.4227 10.244 56.3468 9.89004 56.1903 9.67677C56.0337 9.46351 55.7781 9.35844 55.4234 9.36155C55.0034 9.36524 54.6707 9.51748 54.4251 9.81826C54.1795 10.119 54.0542 10.5308 54.0491 11.0534L54.0108 14.9732L51.8968 14.9918L51.938 10.778C51.9429 10.2833 51.867 9.92939 51.7104 9.71613C51.5539 9.50287 51.2983 9.39779 50.9436 9.40091C50.5236 9.4046 50.1908 9.55684 49.9453 9.85762C49.709 10.1583 49.5883 10.57 49.5832 11.0926L49.5449 15.0124L47.431 15.031ZM61.4323 14.908L61.4834 9.68626C61.4864 9.37828 61.4801 9.06571 61.4645 8.74855C61.4583 8.43132 61.438 8.11887 61.4037 7.81121L63.4336 7.79338L63.6514 9.86319L63.3294 9.86602C63.4276 9.36122 63.581 8.9446 63.7895 8.61614C64.0074 8.28761 64.2711 8.04266 64.5806 7.88129C64.8995 7.71984 65.2596 7.63736 65.6609 7.63383C65.8382 7.63227 65.9781 7.64038 66.0806 7.65814C66.1832 7.66657 66.2856 7.689 66.3879 7.72543L66.3557 9.58747C66.1605 9.50519 65.9931 9.45534 65.8532 9.4379C65.7229 9.41105 65.555 9.39853 65.3497 9.40033C64.9577 9.40377 64.6303 9.48131 64.3675 9.63293C64.1141 9.78447 63.9206 10.0055 63.7871 10.2959C63.663 10.5863 63.5989 10.9368 63.5949 11.3475L63.5602 14.8893L61.4323 14.908Z" fill="url(#paint0_linear_19_3)"/>
<path d="M4.29341 25.7988V28H3.67476V23.2456H6.39204V23.7207H4.29341V25.3203H5.72212V25.7988H4.29341ZM7.03804 28V24.7939H7.58833V25.3818C7.67036 25.2041 7.78658 25.0514 7.93697 24.9238C8.08964 24.7962 8.26167 24.7324 8.45308 24.7324C8.64676 24.7324 8.80513 24.7666 8.92818 24.835C9.0535 24.901 9.13667 24.9717 9.17769 25.0469L8.94527 25.3955C8.91337 25.3545 8.8826 25.3203 8.85298 25.293C8.76867 25.2109 8.64449 25.1699 8.48042 25.1699C8.31636 25.1699 8.16825 25.2223 8.03609 25.3271C7.90393 25.4342 7.79911 25.5641 7.72163 25.7168C7.64416 25.8695 7.59973 26.0221 7.58833 26.1748V28H7.03804ZM10.0732 26.397C10.0732 26.618 10.1005 26.8117 10.1552 26.978C10.2122 27.1421 10.2874 27.2697 10.3808 27.3608C10.4765 27.4497 10.5791 27.5158 10.6884 27.5591C10.8001 27.6001 10.9186 27.6206 11.0439 27.6206C11.2991 27.6206 11.519 27.5329 11.7036 27.3574C11.9064 27.1637 12.0078 26.8436 12.0078 26.397C12.0078 25.9526 11.9064 25.6313 11.7036 25.4331C11.5167 25.2599 11.2968 25.1733 11.0439 25.1733C10.7864 25.1733 10.5665 25.2599 10.3842 25.4331C10.1769 25.6313 10.0732 25.9526 10.0732 26.397ZM9.5229 26.397C9.5229 25.7065 9.74507 25.2257 10.1894 24.9546C10.4355 24.8065 10.7203 24.7324 11.0439 24.7324C11.3652 24.7324 11.6512 24.8065 11.9018 24.9546C12.034 25.0366 12.149 25.1392 12.247 25.2622C12.4589 25.5402 12.5649 25.9185 12.5649 26.397C12.5649 27.0897 12.3439 27.5693 11.9018 27.8359C11.6557 27.9863 11.3697 28.0615 11.0439 28.0615C10.7158 28.0615 10.4309 27.9863 10.1894 27.8359C10.055 27.7562 9.93876 27.6536 9.84077 27.5283C9.62886 27.2572 9.5229 26.88 9.5229 26.397ZM15.4941 26.2671C15.4941 25.5356 15.2321 25.1699 14.708 25.1699C14.5735 25.1699 14.4505 25.2064 14.3388 25.2793C14.1679 25.3887 14.0335 25.5687 13.9355 25.8193C13.9013 25.9059 13.8842 25.9743 13.8842 26.0244V28H13.3339V24.7939H13.8842V25.3818C14.0893 24.9489 14.4231 24.7324 14.8857 24.7324C15.0725 24.7324 15.24 24.7746 15.3881 24.8589C15.5385 24.9409 15.6559 25.0298 15.7402 25.1255C15.943 25.3511 16.0444 25.6678 16.0444 26.0757V28H15.4941V26.2671ZM18.0166 28.0615C17.4742 28.0615 17.2031 27.7607 17.2031 27.1592V25.2314H16.6357V24.7939H17.2031V24.1445L17.7534 23.9395V24.7939H18.5361V25.2314H17.7534V27.125C17.7534 27.3005 17.7978 27.4269 17.8867 27.5044C17.9755 27.5796 18.0747 27.6172 18.184 27.6172C18.396 27.6172 18.5612 27.599 18.6796 27.5625L18.748 27.9487C18.5384 28.0239 18.2946 28.0615 18.0166 28.0615ZM21.2568 26.4653H19.1069V26.0928H21.2568V26.4653ZM22.7504 25.7988V27.5215H24.8491V28H22.1318V23.2456H24.8491V23.7207H22.7504V25.3203H24.1792V25.7988H22.7504ZM27.9218 26.2671C27.9218 25.5356 27.6598 25.1699 27.1357 25.1699C27.0013 25.1699 26.8782 25.2064 26.7666 25.2793C26.5957 25.3887 26.4612 25.5687 26.3632 25.8193C26.3291 25.9059 26.312 25.9743 26.312 26.0244V28H25.7617V24.7939H26.312V25.3818C26.517 24.9489 26.8509 24.7324 27.3134 24.7324C27.5003 24.7324 27.6678 24.7746 27.8159 24.8589C27.9663 24.9409 28.0836 25.0298 28.1679 25.1255C28.3707 25.3511 28.4721 25.6678 28.4721 26.0757V28H27.9218V26.2671ZM30.6254 28.0615C30.3611 28.0615 30.1219 27.9886 29.9077 27.8428C29.6935 27.6969 29.5294 27.5078 29.4155 27.2754C29.3015 27.0407 29.2446 26.79 29.2446 26.5234C29.2446 25.9925 29.3984 25.5618 29.706 25.2314C30.0159 24.8988 30.3999 24.7324 30.8579 24.7324C31.0493 24.7324 31.2783 24.7689 31.5449 24.8418V22.9585H32.1088V28H31.5449V27.624C31.2874 27.9157 30.9809 28.0615 30.6254 28.0615ZM31.5449 25.3203C31.3557 25.2201 31.1689 25.1699 30.9843 25.1699C30.6653 25.1699 30.3896 25.2907 30.1572 25.5322C29.9156 25.7897 29.7949 26.0962 29.7949 26.4517C29.7949 26.8071 29.8792 27.0908 30.0478 27.3027C30.2187 27.5146 30.4283 27.6206 30.6767 27.6206C30.8453 27.6206 31.006 27.5636 31.1586 27.4497C31.3113 27.3335 31.4401 27.1865 31.5449 27.0088V25.3203ZM38.4252 27.4429C37.9285 27.8553 37.2985 28.0615 36.5351 28.0615C36.1227 28.0615 35.7034 28.0262 35.2773 27.9556V23.3105C35.7581 23.2262 36.1534 23.1841 36.4633 23.1841C37.3748 23.1841 38.104 23.486 38.6508 24.0898C38.8217 24.2835 38.9573 24.5137 39.0576 24.7803C39.1578 25.0469 39.208 25.3522 39.208 25.6963C39.208 26.0381 39.1362 26.3651 38.9926 26.6772C38.8514 26.9894 38.6622 27.2446 38.4252 27.4429ZM35.896 23.7207L35.8925 27.5215C36.1022 27.5625 36.3278 27.583 36.5693 27.583C37.0774 27.583 37.5297 27.4201 37.9262 27.0942C38.1176 26.9393 38.2714 26.7365 38.3876 26.4858C38.5061 26.2329 38.5654 25.9674 38.5654 25.6895C38.5654 24.9443 38.2578 24.3758 37.6425 23.9839C37.2985 23.7674 36.927 23.6592 36.5283 23.6592C36.2845 23.6592 36.0737 23.6797 35.896 23.7207ZM41.0742 25.1699C40.7574 25.1699 40.5205 25.2656 40.3632 25.457C40.2539 25.5892 40.1821 25.776 40.1479 26.0176H41.8056C41.7851 25.7692 41.7111 25.5653 41.5835 25.4058C41.4536 25.2485 41.2838 25.1699 41.0742 25.1699ZM42.2294 27.812C41.9834 27.9784 41.6507 28.0615 41.2314 28.0615C40.7005 28.0615 40.2915 27.91 40.0043 27.6069C39.7172 27.3039 39.5737 26.9006 39.5737 26.397C39.5737 25.7407 39.7867 25.2656 40.2128 24.9717C40.4498 24.8122 40.7141 24.7324 41.0058 24.7324C41.457 24.7324 41.7988 24.8851 42.0312 25.1904C42.2272 25.4525 42.332 25.7965 42.3457 26.2227L42.2636 26.4277H40.124C40.1285 26.806 40.2299 27.0999 40.4282 27.3096C40.6264 27.5169 40.8907 27.6206 41.2211 27.6206C41.4718 27.6206 41.7589 27.5534 42.0825 27.4189L42.2294 27.812ZM45.3159 24.7939H45.8696L44.4443 28H44.082L42.6499 24.7939H43.2412L44.2802 27.0908L45.3159 24.7939ZM47.6503 25.1699C47.3336 25.1699 47.0966 25.2656 46.9394 25.457C46.83 25.5892 46.7583 25.776 46.7241 26.0176H48.3818C48.3613 25.7692 48.2872 25.5653 48.1596 25.4058C48.0297 25.2485 47.86 25.1699 47.6503 25.1699ZM48.8056 27.812C48.5595 27.9784 48.2268 28.0615 47.8076 28.0615C47.2766 28.0615 46.8676 27.91 46.5805 27.6069C46.2934 27.3039 46.1499 26.9006 46.1499 26.397C46.1499 25.7407 46.3629 25.2656 46.789 24.9717C47.026 24.8122 47.2903 24.7324 47.582 24.7324C48.0332 24.7324 48.375 24.8851 48.6074 25.1904C48.8033 25.4525 48.9082 25.7965 48.9218 26.2227L48.8398 26.4277H46.7001C46.7047 26.806 46.8061 27.0999 47.0043 27.3096C47.2026 27.5169 47.4669 27.6206 47.7973 27.6206C48.048 27.6206 48.3351 27.5534 48.6586 27.4189L48.8056 27.812ZM50.4257 28.0615C49.9518 28.0615 49.7148 27.7607 49.7148 27.1592V22.9585H50.2651V27.125C50.2651 27.3005 50.2993 27.4269 50.3676 27.5044C50.4383 27.5796 50.5032 27.6172 50.5625 27.6172C50.6217 27.6172 50.7516 27.6081 50.9521 27.5898L50.9965 27.9897C50.7687 28.0376 50.5784 28.0615 50.4257 28.0615ZM51.9433 26.397C51.9433 26.618 51.9707 26.8117 52.0253 26.978C52.0823 27.1421 52.1575 27.2697 52.2509 27.3608C52.3466 27.4497 52.4492 27.5158 52.5585 27.5591C52.6702 27.6001 52.7887 27.6206 52.914 27.6206C53.1692 27.6206 53.3891 27.5329 53.5737 27.3574C53.7765 27.1637 53.8779 26.8436 53.8779 26.397C53.8779 25.9526 53.7765 25.6313 53.5737 25.4331C53.3868 25.2599 53.1669 25.1733 52.914 25.1733C52.6565 25.1733 52.4366 25.2599 52.2543 25.4331C52.047 25.6313 51.9433 25.9526 51.9433 26.397ZM51.393 26.397C51.393 25.7065 51.6152 25.2257 52.0595 24.9546C52.3056 24.8065 52.5904 24.7324 52.914 24.7324C53.2353 24.7324 53.5213 24.8065 53.7719 24.9546C53.9041 25.0366 54.0192 25.1392 54.1171 25.2622C54.3291 25.5402 54.435 25.9185 54.435 26.397C54.435 27.0897 54.214 27.5693 53.7719 27.8359C53.5258 27.9863 53.2399 28.0615 52.914 28.0615C52.5859 28.0615 52.3011 27.9863 52.0595 27.8359C51.9251 27.7562 51.8089 27.6536 51.7109 27.5283C51.499 27.2572 51.393 26.88 51.393 26.397ZM55.768 27.4736C55.9503 27.5739 56.136 27.624 56.3251 27.624C56.6487 27.624 56.9256 27.5021 57.1557 27.2583C57.3973 27.0054 57.518 26.7012 57.518 26.3457C57.518 25.988 57.4337 25.7031 57.2651 25.4912C57.0942 25.2793 56.8846 25.1733 56.6362 25.1733C56.4676 25.1733 56.3069 25.2314 56.1543 25.3477C56.0016 25.4616 55.8728 25.6074 55.768 25.7852V27.4736ZM56.6875 24.7324C56.9518 24.7324 57.191 24.8053 57.4052 24.9512C57.6194 25.097 57.7835 25.2873 57.8974 25.522C58.0113 25.7544 58.0683 26.0039 58.0683 26.2705C58.0683 26.8014 57.9134 27.2332 57.6035 27.5659C57.2959 27.8963 56.913 28.0615 56.455 28.0615C56.2636 28.0615 56.0346 28.0251 55.768 27.9521V29.6816H55.2041V24.7939H55.768V25.1699C56.0255 24.8783 56.332 24.7324 56.6875 24.7324ZM59.9892 25.1699C59.6725 25.1699 59.4355 25.2656 59.2783 25.457C59.1689 25.5892 59.0971 25.776 59.0629 26.0176H60.7207C60.7001 25.7692 60.6261 25.5653 60.4985 25.4058C60.3686 25.2485 60.1988 25.1699 59.9892 25.1699ZM61.1445 27.812C60.8984 27.9784 60.5657 28.0615 60.1464 28.0615C59.6155 28.0615 59.2065 27.91 58.9194 27.6069C58.6323 27.3039 58.4887 26.9006 58.4887 26.397C58.4887 25.7407 58.7018 25.2656 59.1279 24.9717C59.3649 24.8122 59.6292 24.7324 59.9209 24.7324C60.372 24.7324 60.7138 24.8851 60.9462 25.1904C61.1422 25.4525 61.247 25.7965 61.2607 26.2227L61.1787 26.4277H59.039C59.0436 26.806 59.145 27.0999 59.3432 27.3096C59.5415 27.5169 59.8058 27.6206 60.1362 27.6206C60.3868 27.6206 60.6739 27.5534 60.9975 27.4189L61.1445 27.812ZM62.0537 28V24.7939H62.604V25.3818C62.686 25.2041 62.8022 25.0514 62.9526 24.9238C63.1053 24.7962 63.2773 24.7324 63.4687 24.7324C63.6624 24.7324 63.8208 24.7666 63.9438 24.835C64.0691 24.901 64.1523 24.9717 64.1933 25.0469L63.9609 25.3955C63.929 25.3545 63.8982 25.3203 63.8686 25.293C63.7843 25.2109 63.6601 25.1699 63.496 25.1699C63.332 25.1699 63.1839 25.2223 63.0517 25.3271C62.9196 25.4342 62.8147 25.5641 62.7373 25.7168C62.6598 25.8695 62.6154 26.0221 62.604 26.1748V28H62.0537Z" fill="#00D26D"/>
<defs>
<linearGradient id="paint0_linear_19_3" x1="-98.2817" y1="0.650576" x2="129.168" y2="154.743" gradientUnits="userSpaceOnUse">
<stop offset="0.773979" stop-color="#00D26D"/>
<stop offset="1" stop-color="#1F5FBF"/>
</linearGradient>
</defs>
</svg>
