<svg width="163" height="51" viewBox="0 0 163 51" fill="none" xmlns="http://www.w3.org/2000/svg">
<path d="M2.48987 30.4229L2.71281 7.159L11.5895 7.07947C14.2953 7.05523 16.5788 7.49671 18.4399 8.40391C20.301 9.31111 21.6962 10.6294 22.6255 12.3589C23.577 14.0661 24.041 16.1407 24.0176 18.5826C23.9944 21.0025 23.4905 23.0857 22.5059 24.8323C21.5433 26.5787 20.1225 27.9333 18.2435 28.896C16.3647 29.8367 14.0724 30.3192 11.3665 30.3434L2.48987 30.4229ZM7.67814 26.153L11.11 26.1223C13.7059 26.099 15.6366 25.4768 16.9022 24.2556C18.1899 23.0122 18.8458 21.1366 18.8698 18.6287C18.8941 16.0988 18.274 14.2346 17.0097 13.0361C15.7673 11.8374 13.8482 11.2497 11.2523 11.2729L7.82045 11.3037L7.67814 26.153ZM38.9989 30.4588C36.095 30.4848 33.8366 29.7241 32.2236 28.1768C30.6107 26.6294 29.817 24.5138 29.8428 21.83C29.8594 20.092 30.2149 18.5711 30.9094 17.267C31.6258 15.9628 32.6034 14.9421 33.8423 14.2051C35.1035 13.4459 36.57 13.0588 38.2419 13.0439C39.8918 13.0291 41.2634 13.3687 42.3566 14.0628C43.4718 14.7568 44.2983 15.7392 44.8361 17.0102C45.396 18.2591 45.668 19.7194 45.652 21.3914L45.6409 22.5463L33.9264 22.6513L33.9501 20.1764L42.0348 20.1039L41.4694 20.5709C41.4826 19.185 41.2067 18.1426 40.6414 17.4438C40.0984 16.7227 39.2989 16.3669 38.243 16.3764C37.077 16.3869 36.1709 16.8239 35.5247 17.6876C34.9005 18.5511 34.5808 19.7858 34.5654 21.3917L34.5603 21.9197C34.5447 23.5476 34.9291 24.754 35.7135 25.5389C36.5199 26.3235 37.682 26.7091 39.1999 26.6955C40.1019 26.6874 40.9499 26.5698 41.744 26.3427C42.5603 26.0934 43.3338 25.7126 44.0647 25.2001L45.419 28.4875C44.5771 29.111 43.6046 29.5926 42.5015 29.9325C41.4204 30.2721 40.2529 30.4475 38.9989 30.4588ZM56.2612 29.9412L49.1948 13.2757L54.4416 13.2287L59.11 25.3292L58.0211 25.339L63.0873 13.1512L68.0041 13.1072L60.551 29.9027L56.2612 29.9412ZM70.5795 29.8129L70.6301 24.5331L75.9759 24.4852L75.9253 29.765L70.5795 29.8129ZM80.7859 29.7214L91.7004 6.3617L95.9573 6.32356L106.558 29.4905L101.344 29.5372L98.6012 23.0947L100.601 24.4956L86.7741 24.6194L88.8336 23.1822L85.9667 29.675L80.7859 29.7214ZM93.7605 11.7545L89.4069 21.8902L88.5279 20.6442L98.9225 20.5511L98.1515 21.8119L93.8925 11.7533L93.7605 11.7545ZM111.204 29.4489L111.322 17.0745C111.329 16.3705 111.314 15.6557 111.277 14.9301C111.24 14.1826 111.181 13.4462 111.1 12.721L115.885 12.6782L116.218 15.7768L115.822 15.7803C116.316 14.72 117.039 13.8776 117.991 13.2532C118.943 12.6288 120.068 12.3107 121.366 12.2991C122.642 12.2877 123.706 12.5861 124.558 13.1944C125.432 13.7805 126.05 14.7098 126.412 15.9824L125.884 15.9871C126.379 14.8388 127.157 13.93 128.22 13.2605C129.282 12.5691 130.484 12.2174 131.826 12.2054C133.718 12.1884 135.121 12.7368 136.034 13.8504C136.947 14.9641 137.392 16.7199 137.369 19.1178L137.273 29.2153L132.29 29.26L132.385 19.3274C132.396 18.1615 132.217 17.3272 131.848 16.8246C131.479 16.3219 130.876 16.0744 130.04 16.0819C129.051 16.0907 128.266 16.4497 127.687 17.1588C127.109 17.8679 126.813 18.8384 126.802 20.0704L126.713 29.3099L121.73 29.3546L121.825 19.422C121.837 18.2561 121.658 17.4218 121.289 16.9192C120.919 16.4165 120.317 16.169 119.481 16.1765C118.491 16.1853 117.707 16.5443 117.128 17.2534C116.571 17.9623 116.287 18.9327 116.275 20.1647L116.187 29.4042L111.204 29.4489ZM144.207 29.1532L144.325 16.8448C144.332 16.1188 144.317 15.382 144.28 14.6344C144.265 13.8867 144.217 13.1502 144.136 12.425L148.921 12.3822L149.435 17.2609L148.676 17.2677C148.908 16.0778 149.269 15.0957 149.76 14.3214C150.274 13.5469 150.895 12.9694 151.625 12.5889C152.376 12.2082 153.225 12.0136 154.171 12.0052C154.589 12.0014 154.919 12.0205 155.16 12.0623C155.402 12.0821 155.643 12.1349 155.885 12.2208L155.81 16.6099C155.349 16.416 154.955 16.2986 154.625 16.2575C154.318 16.1943 153.922 16.1648 153.438 16.1692C152.514 16.1775 151.742 16.3603 151.123 16.7179C150.526 17.0752 150.07 17.5962 149.755 18.2809C149.463 18.9654 149.312 19.7917 149.303 20.7596L149.223 29.1082L144.207 29.1532Z" fill="url(#paint0_linear_3_14)"/>
<path d="M71.3097 37.8555V41H70.4259V34.208H74.3078V34.8867H71.3097V37.1719H73.3508V37.8555H71.3097ZM75.2306 41V36.4199H76.0168V37.2598C76.134 37.0059 76.3 36.7878 76.5148 36.6055C76.7329 36.4232 76.9787 36.332 77.2521 36.332C77.5288 36.332 77.7551 36.3809 77.9308 36.4785C78.1099 36.5729 78.2287 36.6738 78.2873 36.7812L77.9552 37.2793C77.9097 37.2207 77.8657 37.1719 77.8234 37.1328C77.703 37.0156 77.5256 36.957 77.2912 36.957C77.0568 36.957 76.8452 37.0319 76.6564 37.1816C76.4676 37.3346 76.3179 37.5202 76.2072 37.7383C76.0965 37.9564 76.033 38.1745 76.0168 38.3926V41H75.2306ZM79.5666 38.71C79.5666 39.0257 79.6056 39.3024 79.6838 39.54C79.7651 39.7744 79.8726 39.9567 80.006 40.0869C80.1427 40.2139 80.2892 40.3083 80.4455 40.3701C80.605 40.4287 80.7743 40.458 80.9533 40.458C81.3179 40.458 81.632 40.3327 81.8957 40.082C82.1854 39.8053 82.3302 39.348 82.3302 38.71C82.3302 38.0752 82.1854 37.6162 81.8957 37.333C81.6287 37.0856 81.3146 36.9619 80.9533 36.9619C80.5855 36.9619 80.2713 37.0856 80.0109 37.333C79.7147 37.6162 79.5666 38.0752 79.5666 38.71ZM78.7804 38.71C78.7804 37.7236 79.0978 37.0368 79.7326 36.6494C80.0842 36.4378 80.4911 36.332 80.9533 36.332C81.4123 36.332 81.8208 36.4378 82.1789 36.6494C82.3677 36.7666 82.5321 36.9131 82.672 37.0889C82.9748 37.486 83.1261 38.0264 83.1261 38.71C83.1261 39.6995 82.8104 40.3848 82.1789 40.7656C81.8273 40.9805 81.4188 41.0879 80.9533 41.0879C80.4845 41.0879 80.0776 40.9805 79.7326 40.7656C79.5405 40.6517 79.3745 40.5052 79.2345 40.3262C78.9318 39.9388 78.7804 39.4001 78.7804 38.71ZM87.3107 38.5244C87.3107 37.4795 86.9364 36.957 86.1877 36.957C85.9956 36.957 85.8198 37.0091 85.6603 37.1133C85.4162 37.2695 85.2241 37.5267 85.0842 37.8848C85.0353 38.0085 85.0109 38.1061 85.0109 38.1777V41H84.2248V36.4199H85.0109V37.2598C85.3039 36.6413 85.7808 36.332 86.4416 36.332C86.7085 36.332 86.9478 36.3923 87.1593 36.5127C87.3742 36.6299 87.5418 36.7568 87.6623 36.8936C87.952 37.2158 88.0968 37.6683 88.0968 38.251V41H87.3107V38.5244ZM90.9142 41.0879C90.1395 41.0879 89.7521 40.6582 89.7521 39.7988V37.0449H88.9416V36.4199H89.7521V35.4922L90.5383 35.1992V36.4199H91.6564V37.0449H90.5383V39.75C90.5383 40.0007 90.6017 40.1813 90.7287 40.292C90.8556 40.3994 90.9972 40.4531 91.1535 40.4531C91.4562 40.4531 91.6922 40.4271 91.8615 40.375L91.9592 40.9268C91.6597 41.0342 91.3114 41.0879 90.9142 41.0879ZM95.5431 38.8076H92.4718V38.2754H95.5431V38.8076ZM97.6769 37.8555V40.3164H100.675V41H96.7931V34.208H100.675V34.8867H97.6769V37.1719H99.7179V37.8555H97.6769ZM105.065 38.5244C105.065 37.4795 104.69 36.957 103.942 36.957C103.75 36.957 103.574 37.0091 103.414 37.1133C103.17 37.2695 102.978 37.5267 102.838 37.8848C102.789 38.0085 102.765 38.1061 102.765 38.1777V41H101.979V36.4199H102.765V37.2598C103.058 36.6413 103.535 36.332 104.195 36.332C104.462 36.332 104.702 36.3923 104.913 36.5127C105.128 36.6299 105.296 36.7568 105.416 36.8936C105.706 37.2158 105.851 37.6683 105.851 38.251V41H105.065V38.5244ZM108.927 41.0879C108.549 41.0879 108.208 40.9837 107.902 40.7754C107.596 40.5671 107.361 40.2969 107.198 39.9648C107.036 39.6296 106.954 39.2715 106.954 38.8906C106.954 38.1322 107.174 37.5169 107.613 37.0449C108.056 36.5697 108.605 36.332 109.259 36.332C109.532 36.332 109.86 36.3841 110.24 36.4883V33.7979H111.046V41H110.24V40.4629C109.873 40.8796 109.435 41.0879 108.927 41.0879ZM110.24 37.1719C109.97 37.0286 109.703 36.957 109.44 36.957C108.984 36.957 108.59 37.1296 108.258 37.4746C107.913 37.8424 107.74 38.2803 107.74 38.7881C107.74 39.2959 107.861 39.7012 108.102 40.0039C108.346 40.3066 108.645 40.458 109 40.458C109.241 40.458 109.471 40.3766 109.689 40.2139C109.907 40.0479 110.091 39.8379 110.24 39.584V37.1719ZM120.07 40.2041C119.36 40.7933 118.46 41.0879 117.369 41.0879C116.78 41.0879 116.181 41.0374 115.572 40.9365V34.3008C116.259 34.1803 116.824 34.1201 117.267 34.1201C118.569 34.1201 119.611 34.5514 120.392 35.4141C120.636 35.6908 120.83 36.0195 120.973 36.4004C121.116 36.7812 121.188 37.2174 121.188 37.709C121.188 38.1973 121.085 38.6644 120.88 39.1104C120.678 39.5563 120.408 39.9209 120.07 40.2041ZM116.456 34.8867L116.451 40.3164C116.751 40.375 117.073 40.4043 117.418 40.4043C118.144 40.4043 118.79 40.1715 119.357 39.7061C119.63 39.4847 119.85 39.195 120.016 38.8369C120.185 38.4756 120.27 38.0964 120.27 37.6992C120.27 36.6348 119.83 35.8226 118.951 35.2627C118.46 34.9535 117.929 34.7988 117.36 34.7988C117.011 34.7988 116.71 34.8281 116.456 34.8867ZM123.854 36.957C123.401 36.957 123.063 37.0938 122.838 37.3672C122.682 37.556 122.579 37.8229 122.53 38.168H124.899C124.869 37.8132 124.764 37.5218 124.581 37.2939C124.396 37.0693 124.153 36.957 123.854 36.957ZM125.504 40.7314C125.153 40.9691 124.677 41.0879 124.078 41.0879C123.32 41.0879 122.736 40.8714 122.325 40.4385C121.915 40.0055 121.71 39.4294 121.71 38.71C121.71 37.7725 122.014 37.0938 122.623 36.6738C122.962 36.446 123.339 36.332 123.756 36.332C124.401 36.332 124.889 36.5501 125.221 36.9863C125.501 37.3607 125.651 37.8522 125.67 38.4609L125.553 38.7539H122.496C122.503 39.2943 122.648 39.7142 122.931 40.0137C123.214 40.3099 123.592 40.458 124.064 40.458C124.422 40.458 124.832 40.362 125.294 40.1699L125.504 40.7314ZM129.913 36.4199H130.704L128.668 41H128.151L126.105 36.4199H126.949L128.434 39.7012L129.913 36.4199ZM133.248 36.957C132.796 36.957 132.457 37.0938 132.233 37.3672C132.076 37.556 131.974 37.8229 131.925 38.168H134.293C134.264 37.8132 134.158 37.5218 133.976 37.2939C133.79 37.0693 133.548 36.957 133.248 36.957ZM134.899 40.7314C134.547 40.9691 134.072 41.0879 133.473 41.0879C132.714 41.0879 132.13 40.8714 131.72 40.4385C131.31 40.0055 131.105 39.4294 131.105 38.71C131.105 37.7725 131.409 37.0938 132.018 36.6738C132.356 36.446 132.734 36.332 133.151 36.332C133.795 36.332 134.283 36.5501 134.615 36.9863C134.895 37.3607 135.045 37.8522 135.065 38.4609L134.947 38.7539H131.891C131.897 39.2943 132.042 39.7142 132.325 40.0137C132.609 40.3099 132.986 40.458 133.458 40.458C133.816 40.458 134.226 40.362 134.689 40.1699L134.899 40.7314ZM137.213 41.0879C136.536 41.0879 136.197 40.6582 136.197 39.7988V33.7979H136.984V39.75C136.984 40.0007 137.032 40.1813 137.13 40.292C137.231 40.3994 137.324 40.4531 137.408 40.4531C137.493 40.4531 137.679 40.4401 137.965 40.4141L138.028 40.9854C137.703 41.0537 137.431 41.0879 137.213 41.0879ZM139.381 38.71C139.381 39.0257 139.42 39.3024 139.498 39.54C139.58 39.7744 139.687 39.9567 139.82 40.0869C139.957 40.2139 140.104 40.3083 140.26 40.3701C140.419 40.4287 140.589 40.458 140.768 40.458C141.132 40.458 141.446 40.3327 141.71 40.082C142 39.8053 142.145 39.348 142.145 38.71C142.145 38.0752 142 37.6162 141.71 37.333C141.443 37.0856 141.129 36.9619 140.768 36.9619C140.4 36.9619 140.086 37.0856 139.825 37.333C139.529 37.6162 139.381 38.0752 139.381 38.71ZM138.595 38.71C138.595 37.7236 138.912 37.0368 139.547 36.6494C139.899 36.4378 140.306 36.332 140.768 36.332C141.227 36.332 141.635 36.4378 141.993 36.6494C142.182 36.7666 142.347 36.9131 142.486 37.0889C142.789 37.486 142.941 38.0264 142.941 38.71C142.941 39.6995 142.625 40.3848 141.993 40.7656C141.642 40.9805 141.233 41.0879 140.768 41.0879C140.299 41.0879 139.892 40.9805 139.547 40.7656C139.355 40.6517 139.189 40.5052 139.049 40.3262C138.746 39.9388 138.595 39.4001 138.595 38.71ZM144.845 40.248C145.105 40.3913 145.371 40.4629 145.641 40.4629C146.103 40.4629 146.499 40.2887 146.827 39.9404C147.172 39.5791 147.345 39.1445 147.345 38.6367C147.345 38.1257 147.224 37.7188 146.984 37.416C146.739 37.1133 146.44 36.9619 146.085 36.9619C145.844 36.9619 145.615 37.0449 145.397 37.2109C145.179 37.3737 144.995 37.582 144.845 37.8359V40.248ZM146.158 36.332C146.536 36.332 146.878 36.4362 147.184 36.6445C147.49 36.8529 147.724 37.1247 147.887 37.46C148.05 37.792 148.131 38.1484 148.131 38.5293C148.131 39.2878 147.91 39.9046 147.467 40.3799C147.028 40.8519 146.481 41.0879 145.826 41.0879C145.553 41.0879 145.226 41.0358 144.845 40.9316V43.4023H144.039V36.4199H144.845V36.957C145.213 36.5404 145.651 36.332 146.158 36.332ZM150.875 36.957C150.423 36.957 150.084 37.0938 149.86 37.3672C149.703 37.556 149.601 37.8229 149.552 38.168H151.92C151.891 37.8132 151.785 37.5218 151.603 37.2939C151.417 37.0693 151.175 36.957 150.875 36.957ZM152.526 40.7314C152.174 40.9691 151.699 41.0879 151.1 41.0879C150.341 41.0879 149.757 40.8714 149.347 40.4385C148.937 40.0055 148.732 39.4294 148.732 38.71C148.732 37.7725 149.036 37.0938 149.645 36.6738C149.983 36.446 150.361 36.332 150.778 36.332C151.422 36.332 151.91 36.5501 152.242 36.9863C152.522 37.3607 152.672 37.8522 152.692 38.4609L152.574 38.7539H149.518C149.524 39.2943 149.669 39.7142 149.952 40.0137C150.236 40.3099 150.613 40.458 151.085 40.458C151.443 40.458 151.853 40.362 152.316 40.1699L152.526 40.7314ZM153.824 41V36.4199H154.611V37.2598C154.728 37.0059 154.894 36.7878 155.109 36.6055C155.327 36.4232 155.572 36.332 155.846 36.332C156.123 36.332 156.349 36.3809 156.525 36.4785C156.704 36.5729 156.822 36.6738 156.881 36.7812L156.549 37.2793C156.503 37.2207 156.459 37.1719 156.417 37.1328C156.297 37.0156 156.119 36.957 155.885 36.957C155.651 36.957 155.439 37.0319 155.25 37.1816C155.061 37.3346 154.912 37.5202 154.801 37.7383C154.69 37.9564 154.627 38.1745 154.611 38.3926V41H153.824Z" fill="#00D26D"/>
<defs>
<linearGradient id="paint0_linear_3_14" x1="-96.3697" y1="-3.34942" x2="129.391" y2="146.623" gradientUnits="userSpaceOnUse">
<stop offset="0.773979" stop-color="#00D26D"/>
<stop offset="1" stop-color="#1F5FBF"/>
</linearGradient>
</defs>
</svg>
